<svg width="24" height="24" viewBox="0 0 24 24" fill="none" xmlns="http://www.w3.org/2000/svg">
<path d="M11.7695 3.48828L10.9961 4.26168C10.8131 4.44473 10.8131 4.74152 10.9961 4.92461L17.0559 10.9843L3.71873 10.9843C3.45986 10.9843 3.24998 11.1942 3.24998 11.4531V12.5468C3.24998 12.8057 3.45986 13.0156 3.71873 13.0156L17.0559 13.0156L10.9961 19.0754C10.8131 19.2584 10.8131 19.5552 10.9961 19.7383L11.7695 20.5116C11.9526 20.6947 12.2494 20.6947 12.4324 20.5116L20.6127 12.3314C20.7957 12.1484 20.7957 11.8516 20.6127 11.6685L12.4324 3.48824C12.2494 3.3052 11.9526 3.3052 11.7695 3.48828Z" fill="#212121"/>
</svg>
