<svg width="24" height="32" viewBox="0 0 24 32" fill="none" xmlns="http://www.w3.org/2000/svg">
<path d="M12.2305 24.5117L13.0039 23.7383C13.1869 23.5552 13.1869 23.2584 13.0039 23.0754L6.94411 17.0156H20.2813C20.5401 17.0156 20.75 16.8058 20.75 16.5469V15.4531C20.75 15.1943 20.5401 14.9844 20.2813 14.9844H6.94411L13.0039 8.92462C13.1869 8.74157 13.1869 8.44477 13.0039 8.26169L12.2305 7.48833C12.0474 7.30528 11.7506 7.30528 11.5676 7.48833L3.38732 15.6686C3.20427 15.8516 3.20427 16.1484 3.38732 16.3315L11.5676 24.5117C11.7506 24.6948 12.0474 24.6948 12.2305 24.5117Z" fill="white"/>
</svg>
