<svg width="37" height="20" viewBox="0 0 37 20" fill="none" xmlns="http://www.w3.org/2000/svg">
<path d="M0 10C0 4.47715 4.47715 0 10 0H27C32.5228 0 37 4.47715 37 10C37 15.5228 32.5228 20 27 20H10C4.47715 20 0 15.5228 0 10Z" fill="#A7B723"/>
<path d="M12.87 10.4C13.2767 10.4867 13.6033 10.69 13.85 11.01C14.0967 11.3233 14.22 11.6833 14.22 12.09C14.22 12.6767 14.0133 13.1433 13.6 13.49C13.1933 13.83 12.6233 14 11.89 14H8.62V6.98H11.78C12.4933 6.98 13.05 7.14333 13.45 7.47C13.8567 7.79667 14.06 8.24 14.06 8.8C14.06 9.21333 13.95 9.55667 13.73 9.83C13.5167 10.1033 13.23 10.2933 12.87 10.4ZM10.33 9.82H11.45C11.73 9.82 11.9433 9.76 12.09 9.64C12.2433 9.51333 12.32 9.33 12.32 9.09C12.32 8.85 12.2433 8.66667 12.09 8.54C11.9433 8.41333 11.73 8.35 11.45 8.35H10.33V9.82ZM11.59 12.62C11.8767 12.62 12.0967 12.5567 12.25 12.43C12.41 12.2967 12.49 12.1067 12.49 11.86C12.49 11.6133 12.4067 11.42 12.24 11.28C12.08 11.14 11.8567 11.07 11.57 11.07H10.33V12.62H11.59ZM20.7218 8.42V14H19.0118V13.24C18.8385 13.4867 18.6018 13.6867 18.3018 13.84C18.0085 13.9867 17.6818 14.06 17.3218 14.06C16.8951 14.06 16.5185 13.9667 16.1918 13.78C15.8651 13.5867 15.6118 13.31 15.4318 12.95C15.2518 12.59 15.1618 12.1667 15.1618 11.68V8.42H16.8618V11.45C16.8618 11.8233 16.9585 12.1133 17.1518 12.32C17.3451 12.5267 17.6051 12.63 17.9318 12.63C18.2651 12.63 18.5285 12.5267 18.7218 12.32C18.9151 12.1133 19.0118 11.8233 19.0118 11.45V8.42H20.7218ZM24.0701 8.34C24.4634 8.34 24.8067 8.42 25.1001 8.58C25.4001 8.74 25.6301 8.95 25.7901 9.21V8.42H27.5001V13.99C27.5001 14.5033 27.3967 14.9667 27.1901 15.38C26.9901 15.8 26.6801 16.1333 26.2601 16.38C25.8467 16.6267 25.3301 16.75 24.7101 16.75C23.8834 16.75 23.2134 16.5533 22.7001 16.16C22.1867 15.7733 21.8934 15.2467 21.8201 14.58H23.5101C23.5634 14.7933 23.6901 14.96 23.8901 15.08C24.0901 15.2067 24.3367 15.27 24.6301 15.27C24.9834 15.27 25.2634 15.1667 25.4701 14.96C25.6834 14.76 25.7901 14.4367 25.7901 13.99V13.2C25.6234 13.46 25.3934 13.6733 25.1001 13.84C24.8067 14 24.4634 14.08 24.0701 14.08C23.6101 14.08 23.1934 13.9633 22.8201 13.73C22.4467 13.49 22.1501 13.1533 21.9301 12.72C21.7167 12.28 21.6101 11.7733 21.6101 11.2C21.6101 10.6267 21.7167 10.1233 21.9301 9.69C22.1501 9.25667 22.4467 8.92333 22.8201 8.69C23.1934 8.45667 23.6101 8.34 24.0701 8.34ZM25.7901 11.21C25.7901 10.7833 25.6701 10.4467 25.4301 10.2C25.1967 9.95333 24.9101 9.83 24.5701 9.83C24.2301 9.83 23.9401 9.95333 23.7001 10.2C23.4667 10.44 23.3501 10.7733 23.3501 11.2C23.3501 11.6267 23.4667 11.9667 23.7001 12.22C23.9401 12.4667 24.2301 12.59 24.5701 12.59C24.9101 12.59 25.1967 12.4667 25.4301 12.22C25.6701 11.9733 25.7901 11.6367 25.7901 11.21Z" fill="white"/>
</svg>
