<svg width="41" height="20" viewBox="0 0 41 20" fill="none" xmlns="http://www.w3.org/2000/svg">
<path d="M0 10C0 4.47715 4.47715 0 10 0H31C36.5228 0 41 4.47715 41 10V10C41 15.5228 36.5228 20 31 20H10C4.47715 20 0 15.5228 0 10V10Z" fill="#75574C"/>
<path d="M11.25 6.98C11.99 6.98 12.6367 7.12667 13.19 7.42C13.7433 7.71333 14.17 8.12667 14.47 8.66C14.7767 9.18667 14.93 9.79667 14.93 10.49C14.93 11.1767 14.7767 11.7867 14.47 12.32C14.17 12.8533 13.74 13.2667 13.18 13.56C12.6267 13.8533 11.9833 14 11.25 14H8.62V6.98H11.25ZM11.14 12.52C11.7867 12.52 12.29 12.3433 12.65 11.99C13.01 11.6367 13.19 11.1367 13.19 10.49C13.19 9.84333 13.01 9.34 12.65 8.98C12.29 8.62 11.7867 8.44 11.14 8.44H10.33V12.52H11.14ZM15.5456 11.2C15.5456 10.6267 15.6523 10.1233 15.8656 9.69C16.0856 9.25667 16.3823 8.92333 16.7556 8.69C17.129 8.45667 17.5456 8.34 18.0056 8.34C18.399 8.34 18.7423 8.42 19.0356 8.58C19.3356 8.74 19.5656 8.95 19.7256 9.21V8.42H21.4356V14H19.7256V13.21C19.559 13.47 19.3256 13.68 19.0256 13.84C18.7323 14 18.389 14.08 17.9956 14.08C17.5423 14.08 17.129 13.9633 16.7556 13.73C16.3823 13.49 16.0856 13.1533 15.8656 12.72C15.6523 12.28 15.5456 11.7733 15.5456 11.2ZM19.7256 11.21C19.7256 10.7833 19.6056 10.4467 19.3656 10.2C19.1323 9.95333 18.8456 9.83 18.5056 9.83C18.1656 9.83 17.8756 9.95333 17.6356 10.2C17.4023 10.44 17.2856 10.7733 17.2856 11.2C17.2856 11.6267 17.4023 11.9667 17.6356 12.22C17.8756 12.4667 18.1656 12.59 18.5056 12.59C18.8456 12.59 19.1323 12.4667 19.3656 12.22C19.6056 11.9733 19.7256 11.6367 19.7256 11.21ZM24.3827 9.35C24.5827 9.04333 24.8327 8.80333 25.1327 8.63C25.4327 8.45 25.7661 8.36 26.1327 8.36V10.17H25.6627C25.2361 10.17 24.9161 10.2633 24.7027 10.45C24.4894 10.63 24.3827 10.95 24.3827 11.41V14H22.6727V8.42H24.3827V9.35ZM30.3601 14L28.6601 11.66V14H26.9501V6.6H28.6601V10.69L30.3501 8.42H32.4601L30.1401 11.22L32.4801 14H30.3601Z" fill="white"/>
</svg>
