<svg width="55" height="20" viewBox="0 0 55 20" fill="none" xmlns="http://www.w3.org/2000/svg">
<path d="M0 10C0 4.47715 4.47715 0 10 0H45C50.5228 0 55 4.47715 55 10V10C55 15.5228 50.5228 20 45 20H10C4.47715 20 0 15.5228 0 10V10Z" fill="#7037FF"/>
<path d="M11.25 6.98C11.99 6.98 12.6367 7.12667 13.19 7.42C13.7433 7.71333 14.17 8.12667 14.47 8.66C14.7767 9.18667 14.93 9.79667 14.93 10.49C14.93 11.1767 14.7767 11.7867 14.47 12.32C14.17 12.8533 13.74 13.2667 13.18 13.56C12.6267 13.8533 11.9833 14 11.25 14H8.62V6.98H11.25ZM11.14 12.52C11.7867 12.52 12.29 12.3433 12.65 11.99C13.01 11.6367 13.19 11.1367 13.19 10.49C13.19 9.84333 13.01 9.34 12.65 8.98C12.29 8.62 11.7867 8.44 11.14 8.44H10.33V12.52H11.14ZM17.5956 9.35C17.7956 9.04333 18.0456 8.80333 18.3456 8.63C18.6456 8.45 18.979 8.36 19.3456 8.36V10.17H18.8756C18.449 10.17 18.129 10.2633 17.9156 10.45C17.7023 10.63 17.5956 10.95 17.5956 11.41V14H15.8856V8.42H17.5956V9.35ZM19.823 11.2C19.823 10.6267 19.9296 10.1233 20.143 9.69C20.363 9.25667 20.6596 8.92333 21.033 8.69C21.4063 8.45667 21.823 8.34 22.283 8.34C22.6763 8.34 23.0196 8.42 23.313 8.58C23.613 8.74 23.843 8.95 24.003 9.21V8.42H25.713V14H24.003V13.21C23.8363 13.47 23.603 13.68 23.303 13.84C23.0096 14 22.6663 14.08 22.273 14.08C21.8196 14.08 21.4063 13.9633 21.033 13.73C20.6596 13.49 20.363 13.1533 20.143 12.72C19.9296 12.28 19.823 11.7733 19.823 11.2ZM24.003 11.21C24.003 10.7833 23.883 10.4467 23.643 10.2C23.4096 9.95333 23.123 9.83 22.783 9.83C22.443 9.83 22.153 9.95333 21.913 10.2C21.6796 10.44 21.563 10.7733 21.563 11.2C21.563 11.6267 21.6796 11.9667 21.913 12.22C22.153 12.4667 22.443 12.59 22.783 12.59C23.123 12.59 23.4096 12.4667 23.643 12.22C23.883 11.9733 24.003 11.6367 24.003 11.21ZM29.0701 8.34C29.4634 8.34 29.8067 8.42 30.1001 8.58C30.4001 8.74 30.6301 8.95 30.7901 9.21V8.42H32.5001V13.99C32.5001 14.5033 32.3967 14.9667 32.1901 15.38C31.9901 15.8 31.6801 16.1333 31.2601 16.38C30.8467 16.6267 30.3301 16.75 29.7101 16.75C28.8834 16.75 28.2134 16.5533 27.7001 16.16C27.1867 15.7733 26.8934 15.2467 26.8201 14.58H28.5101C28.5634 14.7933 28.6901 14.96 28.8901 15.08C29.0901 15.2067 29.3367 15.27 29.6301 15.27C29.9834 15.27 30.2634 15.1667 30.4701 14.96C30.6834 14.76 30.7901 14.4367 30.7901 13.99V13.2C30.6234 13.46 30.3934 13.6733 30.1001 13.84C29.8067 14 29.4634 14.08 29.0701 14.08C28.6101 14.08 28.1934 13.9633 27.8201 13.73C27.4467 13.49 27.1501 13.1533 26.9301 12.72C26.7167 12.28 26.6101 11.7733 26.6101 11.2C26.6101 10.6267 26.7167 10.1233 26.9301 9.69C27.1501 9.25667 27.4467 8.92333 27.8201 8.69C28.1934 8.45667 28.6101 8.34 29.0701 8.34ZM30.7901 11.21C30.7901 10.7833 30.6701 10.4467 30.4301 10.2C30.1967 9.95333 29.9101 9.83 29.5701 9.83C29.2301 9.83 28.9401 9.95333 28.7001 10.2C28.4667 10.44 28.3501 10.7733 28.3501 11.2C28.3501 11.6267 28.4667 11.9667 28.7001 12.22C28.9401 12.4667 29.2301 12.59 29.5701 12.59C29.9101 12.59 30.1967 12.4667 30.4301 12.22C30.6701 11.9733 30.7901 11.6367 30.7901 11.21ZM36.2772 14.08C35.7305 14.08 35.2372 13.9633 34.7972 13.73C34.3639 13.4967 34.0205 13.1633 33.7672 12.73C33.5205 12.2967 33.3972 11.79 33.3972 11.21C33.3972 10.6367 33.5239 10.1333 33.7772 9.7C34.0305 9.26 34.3772 8.92333 34.8172 8.69C35.2572 8.45667 35.7505 8.34 36.2972 8.34C36.8439 8.34 37.3372 8.45667 37.7772 8.69C38.2172 8.92333 38.5639 9.26 38.8172 9.7C39.0705 10.1333 39.1972 10.6367 39.1972 11.21C39.1972 11.7833 39.0672 12.29 38.8072 12.73C38.5539 13.1633 38.2039 13.4967 37.7572 13.73C37.3172 13.9633 36.8239 14.08 36.2772 14.08ZM36.2772 12.6C36.6039 12.6 36.8805 12.48 37.1072 12.24C37.3405 12 37.4572 11.6567 37.4572 11.21C37.4572 10.7633 37.3439 10.42 37.1172 10.18C36.8972 9.94 36.6239 9.82 36.2972 9.82C35.9639 9.82 35.6872 9.94 35.4672 10.18C35.2472 10.4133 35.1372 10.7567 35.1372 11.21C35.1372 11.6567 35.2439 12 35.4572 12.24C35.6772 12.48 35.9505 12.6 36.2772 12.6ZM43.5044 8.36C44.1577 8.36 44.6777 8.57333 45.0644 9C45.4577 9.42 45.6544 10 45.6544 10.74V14H43.9544V10.97C43.9544 10.5967 43.8577 10.3067 43.6644 10.1C43.471 9.89333 43.211 9.79 42.8844 9.79C42.5577 9.79 42.2977 9.89333 42.1044 10.1C41.911 10.3067 41.8144 10.5967 41.8144 10.97V14H40.1044V8.42H41.8144V9.16C41.9877 8.91333 42.221 8.72 42.5144 8.58C42.8077 8.43333 43.1377 8.36 43.5044 8.36Z" fill="white"/>
</svg>
