<svg width="42" height="20" viewBox="0 0 42 20" fill="none" xmlns="http://www.w3.org/2000/svg">
<path d="M0 10C0 4.47715 4.47715 0 10 0H32C37.5228 0 42 4.47715 42 10V10C42 15.5228 37.5228 20 32 20H10C4.47715 20 0 15.5228 0 10V10Z" fill="#E69EAC"/>
<path d="M13.19 6.98V8.35H10.33V9.83H12.47V11.16H10.33V14H8.62V6.98H13.19ZM13.7488 11.2C13.7488 10.6267 13.8554 10.1233 14.0688 9.69C14.2888 9.25667 14.5854 8.92333 14.9588 8.69C15.3321 8.45667 15.7488 8.34 16.2088 8.34C16.6021 8.34 16.9454 8.42 17.2388 8.58C17.5388 8.74 17.7688 8.95 17.9288 9.21V8.42H19.6388V14H17.9288V13.21C17.7621 13.47 17.5288 13.68 17.2288 13.84C16.9354 14 16.5921 14.08 16.1988 14.08C15.7454 14.08 15.3321 13.9633 14.9588 13.73C14.5854 13.49 14.2888 13.1533 14.0688 12.72C13.8554 12.28 13.7488 11.7733 13.7488 11.2ZM17.9288 11.21C17.9288 10.7833 17.8088 10.4467 17.5688 10.2C17.3354 9.95333 17.0488 9.83 16.7088 9.83C16.3688 9.83 16.0788 9.95333 15.8388 10.2C15.6054 10.44 15.4888 10.7733 15.4888 11.2C15.4888 11.6267 15.6054 11.9667 15.8388 12.22C16.0788 12.4667 16.3688 12.59 16.7088 12.59C17.0488 12.59 17.3354 12.4667 17.5688 12.22C17.8088 11.9733 17.9288 11.6367 17.9288 11.21ZM21.7359 7.84C21.4359 7.84 21.1892 7.75333 20.9959 7.58C20.8092 7.4 20.7159 7.18 20.7159 6.92C20.7159 6.65333 20.8092 6.43333 20.9959 6.26C21.1892 6.08 21.4359 5.99 21.7359 5.99C22.0292 5.99 22.2692 6.08 22.4559 6.26C22.6492 6.43333 22.7459 6.65333 22.7459 6.92C22.7459 7.18 22.6492 7.4 22.4559 7.58C22.2692 7.75333 22.0292 7.84 21.7359 7.84ZM22.5859 8.42V14H20.8759V8.42H22.5859ZM25.5351 9.35C25.7351 9.04333 25.9851 8.80333 26.2851 8.63C26.5851 8.45 26.9184 8.36 27.2851 8.36V10.17H26.8151C26.3884 10.17 26.0684 10.2633 25.8551 10.45C25.6417 10.63 25.5351 10.95 25.5351 11.41V14H23.8251V8.42H25.5351V9.35ZM33.8024 8.42L30.3024 16.65H28.4624L29.7424 13.81L27.4724 8.42H29.3824L30.6724 11.91L31.9524 8.42H33.8024Z" fill="white"/>
</svg>
