<svg width="59" height="20" viewBox="0 0 59 20" fill="none" xmlns="http://www.w3.org/2000/svg">
<path d="M0 10C0 4.47715 4.47715 0 10 0H49C54.5228 0 59 4.47715 59 10C59 15.5228 54.5228 20 49 20H10C4.47715 20 0 15.5228 0 10Z" fill="#C12239"/>
<path d="M13.19 6.98V8.35H10.33V9.83H12.47V11.16H10.33V14H8.62V6.98H13.19ZM14.9488 7.84C14.6488 7.84 14.4021 7.75333 14.2088 7.58C14.0221 7.4 13.9288 7.18 13.9288 6.92C13.9288 6.65333 14.0221 6.43333 14.2088 6.26C14.4021 6.08 14.6488 5.99 14.9488 5.99C15.2421 5.99 15.4821 6.08 15.6688 6.26C15.8621 6.43333 15.9588 6.65333 15.9588 6.92C15.9588 7.18 15.8621 7.4 15.6688 7.58C15.4821 7.75333 15.2421 7.84 14.9488 7.84ZM15.7988 8.42V14H14.0888V8.42H15.7988ZM19.158 8.34C19.5513 8.34 19.8946 8.42 20.188 8.58C20.488 8.74 20.718 8.95 20.878 9.21V8.42H22.588V13.99C22.588 14.5033 22.4846 14.9667 22.278 15.38C22.078 15.8 21.768 16.1333 21.348 16.38C20.9346 16.6267 20.418 16.75 19.798 16.75C18.9713 16.75 18.3013 16.5533 17.788 16.16C17.2746 15.7733 16.9813 15.2467 16.908 14.58H18.598C18.6513 14.7933 18.778 14.96 18.978 15.08C19.178 15.2067 19.4246 15.27 19.718 15.27C20.0713 15.27 20.3513 15.1667 20.558 14.96C20.7713 14.76 20.878 14.4367 20.878 13.99V13.2C20.7113 13.46 20.4813 13.6733 20.188 13.84C19.8946 14 19.5513 14.08 19.158 14.08C18.698 14.08 18.2813 13.9633 17.908 13.73C17.5346 13.49 17.238 13.1533 17.018 12.72C16.8046 12.28 16.698 11.7733 16.698 11.2C16.698 10.6267 16.8046 10.1233 17.018 9.69C17.238 9.25667 17.5346 8.92333 17.908 8.69C18.2813 8.45667 18.698 8.34 19.158 8.34ZM20.878 11.21C20.878 10.7833 20.758 10.4467 20.518 10.2C20.2846 9.95333 19.998 9.83 19.658 9.83C19.318 9.83 19.028 9.95333 18.788 10.2C18.5546 10.44 18.438 10.7733 18.438 11.2C18.438 11.6267 18.5546 11.9667 18.788 12.22C19.028 12.4667 19.318 12.59 19.658 12.59C19.998 12.59 20.2846 12.4667 20.518 12.22C20.758 11.9733 20.878 11.6367 20.878 11.21ZM27.2551 8.36C27.8951 8.36 28.4084 8.57333 28.7951 9C29.1817 9.42 29.3751 10 29.3751 10.74V14H27.6751V10.97C27.6751 10.5967 27.5784 10.3067 27.3851 10.1C27.1917 9.89333 26.9317 9.79 26.6051 9.79C26.2784 9.79 26.0184 9.89333 25.8251 10.1C25.6317 10.3067 25.5351 10.5967 25.5351 10.97V14H23.8251V6.6H25.5351V9.17C25.7084 8.92333 25.9451 8.72667 26.2451 8.58C26.5451 8.43333 26.8817 8.36 27.2551 8.36ZM33.6734 12.55V14H32.8034C32.1834 14 31.7 13.85 31.3534 13.55C31.0067 13.2433 30.8334 12.7467 30.8334 12.06V9.84H30.1534V8.42H30.8334V7.06H32.5434V8.42H33.6634V9.84H32.5434V12.08C32.5434 12.2467 32.5834 12.3667 32.6634 12.44C32.7434 12.5133 32.8767 12.55 33.0634 12.55H33.6734ZM35.4859 7.84C35.1859 7.84 34.9392 7.75333 34.7459 7.58C34.5592 7.4 34.4659 7.18 34.4659 6.92C34.4659 6.65333 34.5592 6.43333 34.7459 6.26C34.9392 6.08 35.1859 5.99 35.4859 5.99C35.7792 5.99 36.0192 6.08 36.2059 6.26C36.3992 6.43333 36.4959 6.65333 36.4959 6.92C36.4959 7.18 36.3992 7.4 36.2059 7.58C36.0192 7.75333 35.7792 7.84 35.4859 7.84ZM36.3359 8.42V14H34.6259V8.42H36.3359ZM40.9751 8.36C41.6284 8.36 42.1484 8.57333 42.5351 9C42.9284 9.42 43.1251 10 43.1251 10.74V14H41.4251V10.97C41.4251 10.5967 41.3284 10.3067 41.1351 10.1C40.9417 9.89333 40.6817 9.79 40.3551 9.79C40.0284 9.79 39.7684 9.89333 39.5751 10.1C39.3817 10.3067 39.2851 10.5967 39.2851 10.97V14H37.5751V8.42H39.2851V9.16C39.4584 8.91333 39.6917 8.72 39.9851 8.58C40.2784 8.43333 40.6084 8.36 40.9751 8.36ZM46.4334 8.34C46.8267 8.34 47.17 8.42 47.4634 8.58C47.7634 8.74 47.9934 8.95 48.1534 9.21V8.42H49.8634V13.99C49.8634 14.5033 49.76 14.9667 49.5534 15.38C49.3534 15.8 49.0434 16.1333 48.6234 16.38C48.21 16.6267 47.6934 16.75 47.0734 16.75C46.2467 16.75 45.5767 16.5533 45.0634 16.16C44.55 15.7733 44.2567 15.2467 44.1834 14.58H45.8734C45.9267 14.7933 46.0534 14.96 46.2534 15.08C46.4534 15.2067 46.7 15.27 46.9934 15.27C47.3467 15.27 47.6267 15.1667 47.8334 14.96C48.0467 14.76 48.1534 14.4367 48.1534 13.99V13.2C47.9867 13.46 47.7567 13.6733 47.4634 13.84C47.17 14 46.8267 14.08 46.4334 14.08C45.9734 14.08 45.5567 13.9633 45.1834 13.73C44.81 13.49 44.5134 13.1533 44.2934 12.72C44.08 12.28 43.9734 11.7733 43.9734 11.2C43.9734 10.6267 44.08 10.1233 44.2934 9.69C44.5134 9.25667 44.81 8.92333 45.1834 8.69C45.5567 8.45667 45.9734 8.34 46.4334 8.34ZM48.1534 11.21C48.1534 10.7833 48.0334 10.4467 47.7934 10.2C47.56 9.95333 47.2734 9.83 46.9334 9.83C46.5934 9.83 46.3034 9.95333 46.0634 10.2C45.83 10.44 45.7134 10.7733 45.7134 11.2C45.7134 11.6267 45.83 11.9667 46.0634 12.22C46.3034 12.4667 46.5934 12.59 46.9334 12.59C47.2734 12.59 47.56 12.4667 47.7934 12.22C48.0334 11.9733 48.1534 11.6367 48.1534 11.21Z" fill="white"/>
</svg>
