<svg width="55" height="20" viewBox="0 0 55 20" fill="none" xmlns="http://www.w3.org/2000/svg">
<path d="M0 10C0 4.47715 4.47715 0 10 0H45C50.5228 0 55 4.47715 55 10C55 15.5228 50.5228 20 45 20H10C4.47715 20 0 15.5228 0 10Z" fill="#DEC16B"/>
<path d="M13.28 9.2C13.1533 8.96667 12.97 8.79 12.73 8.67C12.4967 8.54333 12.22 8.48 11.9 8.48C11.3467 8.48 10.9033 8.66333 10.57 9.03C10.2367 9.39 10.07 9.87333 10.07 10.48C10.07 11.1267 10.2433 11.6333 10.59 12C10.9433 12.36 11.4267 12.54 12.04 12.54C12.46 12.54 12.8133 12.4333 13.1 12.22C13.3933 12.0067 13.6067 11.7 13.74 11.3H11.57V10.04H15.29V11.63C15.1633 12.0567 14.9467 12.4533 14.64 12.82C14.34 13.1867 13.9567 13.4833 13.49 13.71C13.0233 13.9367 12.4967 14.05 11.91 14.05C11.2167 14.05 10.5967 13.9 10.05 13.6C9.51 13.2933 9.08667 12.87 8.78 12.33C8.48 11.79 8.33 11.1733 8.33 10.48C8.33 9.78667 8.48 9.17 8.78 8.63C9.08667 8.08333 9.51 7.66 10.05 7.36C10.59 7.05333 11.2067 6.9 11.9 6.9C12.74 6.9 13.4467 7.10333 14.02 7.51C14.6 7.91667 14.9833 8.48 15.17 9.2H13.28ZM17.9472 9.35C18.1472 9.04333 18.3972 8.80333 18.6972 8.63C18.9972 8.45 19.3305 8.36 19.6972 8.36V10.17H19.2272C18.8005 10.17 18.4805 10.2633 18.2672 10.45C18.0539 10.63 17.9472 10.95 17.9472 11.41V14H16.2372V8.42H17.9472V9.35ZM23.0545 14.08C22.5079 14.08 22.0145 13.9633 21.5745 13.73C21.1412 13.4967 20.7979 13.1633 20.5445 12.73C20.2979 12.2967 20.1745 11.79 20.1745 11.21C20.1745 10.6367 20.3012 10.1333 20.5545 9.7C20.8079 9.26 21.1545 8.92333 21.5945 8.69C22.0345 8.45667 22.5279 8.34 23.0745 8.34C23.6212 8.34 24.1145 8.45667 24.5545 8.69C24.9945 8.92333 25.3412 9.26 25.5945 9.7C25.8479 10.1333 25.9745 10.6367 25.9745 11.21C25.9745 11.7833 25.8445 12.29 25.5845 12.73C25.3312 13.1633 24.9812 13.4967 24.5345 13.73C24.0945 13.9633 23.6012 14.08 23.0545 14.08ZM23.0545 12.6C23.3812 12.6 23.6579 12.48 23.8845 12.24C24.1179 12 24.2345 11.6567 24.2345 11.21C24.2345 10.7633 24.1212 10.42 23.8945 10.18C23.6745 9.94 23.4012 9.82 23.0745 9.82C22.7412 9.82 22.4645 9.94 22.2445 10.18C22.0245 10.4133 21.9145 10.7567 21.9145 11.21C21.9145 11.6567 22.0212 12 22.2345 12.24C22.4545 12.48 22.7279 12.6 23.0545 12.6ZM32.3917 8.42V14H30.6817V13.24C30.5084 13.4867 30.2717 13.6867 29.9717 13.84C29.6784 13.9867 29.3517 14.06 28.9917 14.06C28.5651 14.06 28.1884 13.9667 27.8617 13.78C27.5351 13.5867 27.2817 13.31 27.1017 12.95C26.9217 12.59 26.8317 12.1667 26.8317 11.68V8.42H28.5317V11.45C28.5317 11.8233 28.6284 12.1133 28.8217 12.32C29.0151 12.5267 29.2751 12.63 29.6017 12.63C29.9351 12.63 30.1984 12.5267 30.3917 12.32C30.5851 12.1133 30.6817 11.8233 30.6817 11.45V8.42H32.3917ZM37.02 8.36C37.6733 8.36 38.1933 8.57333 38.58 9C38.9733 9.42 39.17 10 39.17 10.74V14H37.47V10.97C37.47 10.5967 37.3733 10.3067 37.18 10.1C36.9867 9.89333 36.7267 9.79 36.4 9.79C36.0733 9.79 35.8133 9.89333 35.62 10.1C35.4267 10.3067 35.33 10.5967 35.33 10.97V14H33.62V8.42H35.33V9.16C35.5033 8.91333 35.7367 8.72 36.03 8.58C36.3233 8.43333 36.6533 8.36 37.02 8.36ZM40.0183 11.2C40.0183 10.6267 40.1249 10.1233 40.3383 9.69C40.5583 9.25667 40.8549 8.92333 41.2283 8.69C41.6016 8.45667 42.0183 8.34 42.4783 8.34C42.8449 8.34 43.1783 8.41667 43.4783 8.57C43.7849 8.72333 44.0249 8.93 44.1983 9.19V6.6H45.9083V14H44.1983V13.2C44.0383 13.4667 43.8083 13.68 43.5083 13.84C43.2149 14 42.8716 14.08 42.4783 14.08C42.0183 14.08 41.6016 13.9633 41.2283 13.73C40.8549 13.49 40.5583 13.1533 40.3383 12.72C40.1249 12.28 40.0183 11.7733 40.0183 11.2ZM44.1983 11.21C44.1983 10.7833 44.0783 10.4467 43.8383 10.2C43.6049 9.95333 43.3183 9.83 42.9783 9.83C42.6383 9.83 42.3483 9.95333 42.1083 10.2C41.8749 10.44 41.7583 10.7733 41.7583 11.2C41.7583 11.6267 41.8749 11.9667 42.1083 12.22C42.3483 12.4667 42.6383 12.59 42.9783 12.59C43.3183 12.59 43.6049 12.4667 43.8383 12.22C44.0783 11.9733 44.1983 11.6367 44.1983 11.21Z" fill="white"/>
</svg>
