<svg width="32" height="20" viewBox="0 0 32 20" fill="none" xmlns="http://www.w3.org/2000/svg">
<path d="M0 10C0 4.47715 4.47715 0 10 0H22C27.5228 0 32 4.47715 32 10V10C32 15.5228 27.5228 20 22 20H10C4.47715 20 0 15.5228 0 10V10Z" fill="#9AD6DF"/>
<path d="M10.33 6.98V14H8.62V6.98H10.33ZM11.2292 11.21C11.2292 10.63 11.3459 10.1233 11.5792 9.69C11.8192 9.25667 12.1492 8.92333 12.5692 8.69C12.9959 8.45667 13.4826 8.34 14.0292 8.34C14.7292 8.34 15.3126 8.52333 15.7792 8.89C16.2526 9.25667 16.5626 9.77333 16.7092 10.44H14.8892C14.7359 10.0133 14.4392 9.8 13.9992 9.8C13.6859 9.8 13.4359 9.92333 13.2492 10.17C13.0626 10.41 12.9692 10.7567 12.9692 11.21C12.9692 11.6633 13.0626 12.0133 13.2492 12.26C13.4359 12.5 13.6859 12.62 13.9992 12.62C14.4392 12.62 14.7359 12.4067 14.8892 11.98H16.7092C16.5626 12.6333 16.2526 13.1467 15.7792 13.52C15.3059 13.8933 14.7226 14.08 14.0292 14.08C13.4826 14.08 12.9959 13.9633 12.5692 13.73C12.1492 13.4967 11.8192 13.1633 11.5792 12.73C11.3459 12.2967 11.2292 11.79 11.2292 11.21ZM22.8839 11.12C22.8839 11.28 22.8739 11.4467 22.8539 11.62H18.9839C19.0106 11.9667 19.1206 12.2333 19.3139 12.42C19.5139 12.6 19.7572 12.69 20.0439 12.69C20.4706 12.69 20.7672 12.51 20.9339 12.15H22.7539C22.6606 12.5167 22.4906 12.8467 22.2439 13.14C22.0039 13.4333 21.7006 13.6633 21.3339 13.83C20.9672 13.9967 20.5572 14.08 20.1039 14.08C19.5572 14.08 19.0706 13.9633 18.6439 13.73C18.2172 13.4967 17.8839 13.1633 17.6439 12.73C17.4039 12.2967 17.2839 11.79 17.2839 11.21C17.2839 10.63 17.4006 10.1233 17.6339 9.69C17.8739 9.25667 18.2072 8.92333 18.6339 8.69C19.0606 8.45667 19.5506 8.34 20.1039 8.34C20.6439 8.34 21.1239 8.45333 21.5439 8.68C21.9639 8.90667 22.2906 9.23 22.5239 9.65C22.7639 10.07 22.8839 10.56 22.8839 11.12ZM21.1339 10.67C21.1339 10.3767 21.0339 10.1433 20.8339 9.97C20.6339 9.79667 20.3839 9.71 20.0839 9.71C19.7972 9.71 19.5539 9.79333 19.3539 9.96C19.1606 10.1267 19.0406 10.3633 18.9939 10.67H21.1339Z" fill="white"/>
</svg>
