<svg width="55" height="20" viewBox="0 0 55 20" fill="none" xmlns="http://www.w3.org/2000/svg">
<path d="M0 10C0 4.47715 4.47715 0 10 0H45C50.5228 0 55 4.47715 55 10C55 15.5228 50.5228 20 45 20H10C4.47715 20 0 15.5228 0 10Z" fill="#AAA67F"/>
<path d="M14.9 14H13.19L10.33 9.67V14H8.62V6.98H10.33L13.19 11.33V6.98H14.9V14ZM18.6795 14.08C18.1329 14.08 17.6395 13.9633 17.1995 13.73C16.7662 13.4967 16.4229 13.1633 16.1695 12.73C15.9229 12.2967 15.7995 11.79 15.7995 11.21C15.7995 10.6367 15.9262 10.1333 16.1795 9.7C16.4329 9.26 16.7795 8.92333 17.2195 8.69C17.6595 8.45667 18.1529 8.34 18.6995 8.34C19.2462 8.34 19.7395 8.45667 20.1795 8.69C20.6195 8.92333 20.9662 9.26 21.2195 9.7C21.4729 10.1333 21.5995 10.6367 21.5995 11.21C21.5995 11.7833 21.4695 12.29 21.2095 12.73C20.9562 13.1633 20.6062 13.4967 20.1595 13.73C19.7195 13.9633 19.2262 14.08 18.6795 14.08ZM18.6795 12.6C19.0062 12.6 19.2829 12.48 19.5095 12.24C19.7429 12 19.8595 11.6567 19.8595 11.21C19.8595 10.7633 19.7462 10.42 19.5195 10.18C19.2995 9.94 19.0262 9.82 18.6995 9.82C18.3662 9.82 18.0895 9.94 17.8695 10.18C17.6495 10.4133 17.5395 10.7567 17.5395 11.21C17.5395 11.6567 17.6462 12 17.8595 12.24C18.0795 12.48 18.3529 12.6 18.6795 12.6ZM24.2167 9.35C24.4167 9.04333 24.6667 8.80333 24.9667 8.63C25.2667 8.45 25.6001 8.36 25.9667 8.36V10.17H25.4967C25.0701 10.17 24.7501 10.2633 24.5367 10.45C24.3234 10.63 24.2167 10.95 24.2167 11.41V14H22.5067V8.42H24.2167V9.35ZM33.9041 8.36C34.5974 8.36 35.1474 8.57 35.5541 8.99C35.9674 9.41 36.1741 9.99333 36.1741 10.74V14H34.4741V10.97C34.4741 10.61 34.3774 10.3333 34.1841 10.14C33.9974 9.94 33.7374 9.84 33.4041 9.84C33.0707 9.84 32.8074 9.94 32.6141 10.14C32.4274 10.3333 32.3341 10.61 32.3341 10.97V14H30.6341V10.97C30.6341 10.61 30.5374 10.3333 30.3441 10.14C30.1574 9.94 29.8974 9.84 29.5641 9.84C29.2307 9.84 28.9674 9.94 28.7741 10.14C28.5874 10.3333 28.4941 10.61 28.4941 10.97V14H26.7841V8.42H28.4941V9.12C28.6674 8.88667 28.8941 8.70333 29.1741 8.57C29.4541 8.43 29.7707 8.36 30.1241 8.36C30.5441 8.36 30.9174 8.45 31.2441 8.63C31.5774 8.81 31.8374 9.06667 32.0241 9.4C32.2174 9.09333 32.4807 8.84333 32.8141 8.65C33.1474 8.45667 33.5107 8.36 33.9041 8.36ZM37.03 11.2C37.03 10.6267 37.1367 10.1233 37.35 9.69C37.57 9.25667 37.8667 8.92333 38.24 8.69C38.6133 8.45667 39.03 8.34 39.49 8.34C39.8833 8.34 40.2267 8.42 40.52 8.58C40.82 8.74 41.05 8.95 41.21 9.21V8.42H42.92V14H41.21V13.21C41.0433 13.47 40.81 13.68 40.51 13.84C40.2167 14 39.8733 14.08 39.48 14.08C39.0267 14.08 38.6133 13.9633 38.24 13.73C37.8667 13.49 37.57 13.1533 37.35 12.72C37.1367 12.28 37.03 11.7733 37.03 11.2ZM41.21 11.21C41.21 10.7833 41.09 10.4467 40.85 10.2C40.6167 9.95333 40.33 9.83 39.99 9.83C39.65 9.83 39.36 9.95333 39.12 10.2C38.8867 10.44 38.77 10.7733 38.77 11.2C38.77 11.6267 38.8867 11.9667 39.12 12.22C39.36 12.4667 39.65 12.59 39.99 12.59C40.33 12.59 40.6167 12.4667 40.85 12.22C41.09 11.9733 41.21 11.6367 41.21 11.21ZM45.8671 6.6V14H44.1571V6.6H45.8671Z" fill="white"/>
</svg>
