<svg width="51" height="20" viewBox="0 0 51 20" fill="none" xmlns="http://www.w3.org/2000/svg">
<path d="M0 10C0 4.47715 4.47715 0 10 0H41C46.5228 0 51 4.47715 51 10C51 15.5228 46.5228 20 41 20H10C4.47715 20 0 15.5228 0 10Z" fill="#A43E9E"/>
<path d="M13.97 9.24C13.97 9.64667 13.8767 10.02 13.69 10.36C13.5033 10.6933 13.2167 10.9633 12.83 11.17C12.4433 11.3767 11.9633 11.48 11.39 11.48H10.33V14H8.62V6.98H11.39C11.95 6.98 12.4233 7.07667 12.81 7.27C13.1967 7.46333 13.4867 7.73 13.68 8.07C13.8733 8.41 13.97 8.8 13.97 9.24ZM11.26 10.12C11.5867 10.12 11.83 10.0433 11.99 9.89C12.15 9.73667 12.23 9.52 12.23 9.24C12.23 8.96 12.15 8.74333 11.99 8.59C11.83 8.43667 11.5867 8.36 11.26 8.36H10.33V10.12H11.26ZM17.4002 14.08C16.8536 14.08 16.3602 13.9633 15.9202 13.73C15.4869 13.4967 15.1436 13.1633 14.8902 12.73C14.6436 12.2967 14.5202 11.79 14.5202 11.21C14.5202 10.6367 14.6469 10.1333 14.9002 9.7C15.1536 9.26 15.5002 8.92333 15.9402 8.69C16.3802 8.45667 16.8736 8.34 17.4202 8.34C17.9669 8.34 18.4602 8.45667 18.9002 8.69C19.3402 8.92333 19.6869 9.26 19.9402 9.7C20.1936 10.1333 20.3202 10.6367 20.3202 11.21C20.3202 11.7833 20.1902 12.29 19.9302 12.73C19.6769 13.1633 19.3269 13.4967 18.8802 13.73C18.4402 13.9633 17.9469 14.08 17.4002 14.08ZM17.4002 12.6C17.7269 12.6 18.0036 12.48 18.2302 12.24C18.4636 12 18.5802 11.6567 18.5802 11.21C18.5802 10.7633 18.4669 10.42 18.2402 10.18C18.0202 9.94 17.7469 9.82 17.4202 9.82C17.0869 9.82 16.8102 9.94 16.5902 10.18C16.3702 10.4133 16.2602 10.7567 16.2602 11.21C16.2602 11.6567 16.3669 12 16.5802 12.24C16.8002 12.48 17.0736 12.6 17.4002 12.6ZM22.0874 7.84C21.7874 7.84 21.5408 7.75333 21.3474 7.58C21.1608 7.4 21.0674 7.18 21.0674 6.92C21.0674 6.65333 21.1608 6.43333 21.3474 6.26C21.5408 6.08 21.7874 5.99 22.0874 5.99C22.3808 5.99 22.6208 6.08 22.8074 6.26C23.0008 6.43333 23.0974 6.65333 23.0974 6.92C23.0974 7.18 23.0008 7.4 22.8074 7.58C22.6208 7.75333 22.3808 7.84 22.0874 7.84ZM22.9374 8.42V14H21.2274V8.42H22.9374ZM26.4466 14.08C25.96 14.08 25.5266 13.9967 25.1466 13.83C24.7666 13.6633 24.4666 13.4367 24.2466 13.15C24.0266 12.8567 23.9033 12.53 23.8766 12.17H25.5666C25.5866 12.3633 25.6766 12.52 25.8366 12.64C25.9966 12.76 26.1933 12.82 26.4266 12.82C26.64 12.82 26.8033 12.78 26.9166 12.7C27.0366 12.6133 27.0966 12.5033 27.0966 12.37C27.0966 12.21 27.0133 12.0933 26.8466 12.02C26.68 11.94 26.41 11.8533 26.0366 11.76C25.6366 11.6667 25.3033 11.57 25.0366 11.47C24.77 11.3633 24.54 11.2 24.3466 10.98C24.1533 10.7533 24.0566 10.45 24.0566 10.07C24.0566 9.75 24.1433 9.46 24.3166 9.2C24.4966 8.93333 24.7566 8.72333 25.0966 8.57C25.4433 8.41667 25.8533 8.34 26.3266 8.34C27.0266 8.34 27.5766 8.51333 27.9766 8.86C28.3833 9.20667 28.6166 9.66667 28.6766 10.24H27.0966C27.07 10.0467 26.9833 9.89333 26.8366 9.78C26.6966 9.66667 26.51 9.61 26.2766 9.61C26.0766 9.61 25.9233 9.65 25.8166 9.73C25.71 9.80333 25.6566 9.90667 25.6566 10.04C25.6566 10.2 25.74 10.32 25.9066 10.4C26.08 10.48 26.3466 10.56 26.7066 10.64C27.12 10.7467 27.4566 10.8533 27.7166 10.96C27.9766 11.06 28.2033 11.2267 28.3966 11.46C28.5966 11.6867 28.7 11.9933 28.7066 12.38C28.7066 12.7067 28.6133 13 28.4266 13.26C28.2466 13.5133 27.9833 13.7133 27.6366 13.86C27.2966 14.0067 26.9 14.08 26.4466 14.08ZM32.2928 14.08C31.7461 14.08 31.2528 13.9633 30.8128 13.73C30.3795 13.4967 30.0361 13.1633 29.7828 12.73C29.5361 12.2967 29.4128 11.79 29.4128 11.21C29.4128 10.6367 29.5395 10.1333 29.7928 9.7C30.0461 9.26 30.3928 8.92333 30.8328 8.69C31.2728 8.45667 31.7661 8.34 32.3128 8.34C32.8595 8.34 33.3528 8.45667 33.7928 8.69C34.2328 8.92333 34.5795 9.26 34.8328 9.7C35.0861 10.1333 35.2128 10.6367 35.2128 11.21C35.2128 11.7833 35.0828 12.29 34.8228 12.73C34.5695 13.1633 34.2195 13.4967 33.7728 13.73C33.3328 13.9633 32.8395 14.08 32.2928 14.08ZM32.2928 12.6C32.6195 12.6 32.8961 12.48 33.1228 12.24C33.3561 12 33.4728 11.6567 33.4728 11.21C33.4728 10.7633 33.3595 10.42 33.1328 10.18C32.9128 9.94 32.6395 9.82 32.3128 9.82C31.9795 9.82 31.7028 9.94 31.4828 10.18C31.2628 10.4133 31.1528 10.7567 31.1528 11.21C31.1528 11.6567 31.2595 12 31.4728 12.24C31.6928 12.48 31.9661 12.6 32.2928 12.6ZM39.52 8.36C40.1733 8.36 40.6933 8.57333 41.08 9C41.4733 9.42 41.67 10 41.67 10.74V14H39.97V10.97C39.97 10.5967 39.8733 10.3067 39.68 10.1C39.4867 9.89333 39.2267 9.79 38.9 9.79C38.5733 9.79 38.3133 9.89333 38.12 10.1C37.9267 10.3067 37.83 10.5967 37.83 10.97V14H36.12V8.42H37.83V9.16C38.0033 8.91333 38.2367 8.72 38.53 8.58C38.8233 8.43333 39.1533 8.36 39.52 8.36Z" fill="white"/>
</svg>
