<svg width="56" height="20" viewBox="0 0 56 20" fill="none" xmlns="http://www.w3.org/2000/svg">
<path d="M0 10C0 4.47715 4.47715 0 10 0H46C51.5228 0 56 4.47715 56 10V10C56 15.5228 51.5228 20 46 20H10C4.47715 20 0 15.5228 0 10V10Z" fill="#FB5584"/>
<path d="M13.97 9.24C13.97 9.64667 13.8767 10.02 13.69 10.36C13.5033 10.6933 13.2167 10.9633 12.83 11.17C12.4433 11.3767 11.9633 11.48 11.39 11.48H10.33V14H8.62V6.98H11.39C11.95 6.98 12.4233 7.07667 12.81 7.27C13.1967 7.46333 13.4867 7.73 13.68 8.07C13.8733 8.41 13.97 8.8 13.97 9.24ZM11.26 10.12C11.5867 10.12 11.83 10.0433 11.99 9.89C12.15 9.73667 12.23 9.52 12.23 9.24C12.23 8.96 12.15 8.74333 11.99 8.59C11.83 8.43667 11.5867 8.36 11.26 8.36H10.33V10.12H11.26ZM17.1302 14.08C16.6436 14.08 16.2102 13.9967 15.8302 13.83C15.4502 13.6633 15.1502 13.4367 14.9302 13.15C14.7102 12.8567 14.5869 12.53 14.5602 12.17H16.2502C16.2702 12.3633 16.3602 12.52 16.5202 12.64C16.6802 12.76 16.8769 12.82 17.1102 12.82C17.3236 12.82 17.4869 12.78 17.6002 12.7C17.7202 12.6133 17.7802 12.5033 17.7802 12.37C17.7802 12.21 17.6969 12.0933 17.5302 12.02C17.3636 11.94 17.0936 11.8533 16.7202 11.76C16.3202 11.6667 15.9869 11.57 15.7202 11.47C15.4536 11.3633 15.2236 11.2 15.0302 10.98C14.8369 10.7533 14.7402 10.45 14.7402 10.07C14.7402 9.75 14.8269 9.46 15.0002 9.2C15.1802 8.93333 15.4402 8.72333 15.7802 8.57C16.1269 8.41667 16.5369 8.34 17.0102 8.34C17.7102 8.34 18.2602 8.51333 18.6602 8.86C19.0669 9.20667 19.3002 9.66667 19.3602 10.24H17.7802C17.7536 10.0467 17.6669 9.89333 17.5202 9.78C17.3802 9.66667 17.1936 9.61 16.9602 9.61C16.7602 9.61 16.6069 9.65 16.5002 9.73C16.3936 9.80333 16.3402 9.90667 16.3402 10.04C16.3402 10.2 16.4236 10.32 16.5902 10.4C16.7636 10.48 17.0302 10.56 17.3902 10.64C17.8036 10.7467 18.1402 10.8533 18.4002 10.96C18.6602 11.06 18.8869 11.2267 19.0802 11.46C19.2802 11.6867 19.3836 11.9933 19.3902 12.38C19.3902 12.7067 19.2969 13 19.1102 13.26C18.9302 13.5133 18.6669 13.7133 18.3202 13.86C17.9802 14.0067 17.5836 14.08 17.1302 14.08ZM26.1364 8.42L22.6364 16.65H20.7964L22.0764 13.81L19.8064 8.42H21.7164L23.0064 11.91L24.2864 8.42H26.1364ZM26.4148 11.21C26.4148 10.63 26.5314 10.1233 26.7648 9.69C27.0048 9.25667 27.3348 8.92333 27.7548 8.69C28.1814 8.45667 28.6681 8.34 29.2148 8.34C29.9148 8.34 30.4981 8.52333 30.9648 8.89C31.4381 9.25667 31.7481 9.77333 31.8948 10.44H30.0748C29.9214 10.0133 29.6248 9.8 29.1848 9.8C28.8714 9.8 28.6214 9.92333 28.4348 10.17C28.2481 10.41 28.1548 10.7567 28.1548 11.21C28.1548 11.6633 28.2481 12.0133 28.4348 12.26C28.6214 12.5 28.8714 12.62 29.1848 12.62C29.6248 12.62 29.9214 12.4067 30.0748 11.98H31.8948C31.7481 12.6333 31.4381 13.1467 30.9648 13.52C30.4914 13.8933 29.9081 14.08 29.2148 14.08C28.6681 14.08 28.1814 13.9633 27.7548 13.73C27.3348 13.4967 27.0048 13.1633 26.7648 12.73C26.5314 12.2967 26.4148 11.79 26.4148 11.21ZM36.2395 8.36C36.8795 8.36 37.3928 8.57333 37.7795 9C38.1661 9.42 38.3595 10 38.3595 10.74V14H36.6595V10.97C36.6595 10.5967 36.5628 10.3067 36.3695 10.1C36.1761 9.89333 35.9161 9.79 35.5895 9.79C35.2628 9.79 35.0028 9.89333 34.8095 10.1C34.6161 10.3067 34.5195 10.5967 34.5195 10.97V14H32.8095V6.6H34.5195V9.17C34.6928 8.92333 34.9295 8.72667 35.2295 8.58C35.5295 8.43333 35.8661 8.36 36.2395 8.36ZM40.4077 7.84C40.1077 7.84 39.8611 7.75333 39.6677 7.58C39.4811 7.4 39.3877 7.18 39.3877 6.92C39.3877 6.65333 39.4811 6.43333 39.6677 6.26C39.8611 6.08 40.1077 5.99 40.4077 5.99C40.7011 5.99 40.9411 6.08 41.1277 6.26C41.3211 6.43333 41.4177 6.65333 41.4177 6.92C41.4177 7.18 41.3211 7.4 41.1277 7.58C40.9411 7.75333 40.7011 7.84 40.4077 7.84ZM41.2577 8.42V14H39.5477V8.42H41.2577ZM42.157 11.21C42.157 10.63 42.2736 10.1233 42.507 9.69C42.747 9.25667 43.077 8.92333 43.497 8.69C43.9236 8.45667 44.4103 8.34 44.957 8.34C45.657 8.34 46.2403 8.52333 46.707 8.89C47.1803 9.25667 47.4903 9.77333 47.637 10.44H45.817C45.6636 10.0133 45.367 9.8 44.927 9.8C44.6136 9.8 44.3636 9.92333 44.177 10.17C43.9903 10.41 43.897 10.7567 43.897 11.21C43.897 11.6633 43.9903 12.0133 44.177 12.26C44.3636 12.5 44.6136 12.62 44.927 12.62C45.367 12.62 45.6636 12.4067 45.817 11.98H47.637C47.4903 12.6333 47.1803 13.1467 46.707 13.52C46.2336 13.8933 45.6503 14.08 44.957 14.08C44.4103 14.08 43.9236 13.9633 43.497 13.73C43.077 13.4967 42.747 13.1633 42.507 12.73C42.2736 12.2967 42.157 11.79 42.157 11.21Z" fill="white"/>
</svg>
