<svg width="42" height="20" viewBox="0 0 42 20" fill="none" xmlns="http://www.w3.org/2000/svg">
<path d="M0 10C0 4.47715 4.47715 0 10 0H32C37.5228 0 42 4.47715 42 10C42 15.5228 37.5228 20 32 20H10C4.47715 20 0 15.5228 0 10Z" fill="#B69E31"/>
<path d="M12.2 14L10.74 11.35H10.33V14H8.62V6.98H11.49C12.0433 6.98 12.5133 7.07667 12.9 7.27C13.2933 7.46333 13.5867 7.73 13.78 8.07C13.9733 8.40333 14.07 8.77667 14.07 9.19C14.07 9.65667 13.9367 10.0733 13.67 10.44C13.41 10.8067 13.0233 11.0667 12.51 11.22L14.13 14H12.2ZM10.33 10.14H11.39C11.7033 10.14 11.9367 10.0633 12.09 9.91C12.25 9.75667 12.33 9.54 12.33 9.26C12.33 8.99333 12.25 8.78333 12.09 8.63C11.9367 8.47667 11.7033 8.4 11.39 8.4H10.33V10.14ZM17.6834 14.08C17.1368 14.08 16.6434 13.9633 16.2034 13.73C15.7701 13.4967 15.4268 13.1633 15.1734 12.73C14.9268 12.2967 14.8034 11.79 14.8034 11.21C14.8034 10.6367 14.9301 10.1333 15.1834 9.7C15.4368 9.26 15.7834 8.92333 16.2234 8.69C16.6634 8.45667 17.1568 8.34 17.7034 8.34C18.2501 8.34 18.7434 8.45667 19.1834 8.69C19.6234 8.92333 19.9701 9.26 20.2234 9.7C20.4768 10.1333 20.6034 10.6367 20.6034 11.21C20.6034 11.7833 20.4734 12.29 20.2134 12.73C19.9601 13.1633 19.6101 13.4967 19.1634 13.73C18.7234 13.9633 18.2301 14.08 17.6834 14.08ZM17.6834 12.6C18.0101 12.6 18.2868 12.48 18.5134 12.24C18.7468 12 18.8634 11.6567 18.8634 11.21C18.8634 10.7633 18.7501 10.42 18.5234 10.18C18.3034 9.94 18.0301 9.82 17.7034 9.82C17.3701 9.82 17.0934 9.94 16.8734 10.18C16.6534 10.4133 16.5434 10.7567 16.5434 11.21C16.5434 11.6567 16.6501 12 16.8634 12.24C17.0834 12.48 17.3568 12.6 17.6834 12.6ZM21.1706 11.21C21.1706 10.63 21.2873 10.1233 21.5206 9.69C21.7606 9.25667 22.0906 8.92333 22.5106 8.69C22.9373 8.45667 23.424 8.34 23.9706 8.34C24.6706 8.34 25.254 8.52333 25.7206 8.89C26.194 9.25667 26.504 9.77333 26.6506 10.44H24.8306C24.6773 10.0133 24.3806 9.8 23.9406 9.8C23.6273 9.8 23.3773 9.92333 23.1906 10.17C23.004 10.41 22.9106 10.7567 22.9106 11.21C22.9106 11.6633 23.004 12.0133 23.1906 12.26C23.3773 12.5 23.6273 12.62 23.9406 12.62C24.3806 12.62 24.6773 12.4067 24.8306 11.98H26.6506C26.504 12.6333 26.194 13.1467 25.7206 13.52C25.2473 13.8933 24.664 14.08 23.9706 14.08C23.424 14.08 22.9373 13.9633 22.5106 13.73C22.0906 13.4967 21.7606 13.1633 21.5206 12.73C21.2873 12.2967 21.1706 11.79 21.1706 11.21ZM30.9753 14L29.2753 11.66V14H27.5653V6.6H29.2753V10.69L30.9653 8.42H33.0753L30.7553 11.22L33.0953 14H30.9753Z" fill="white"/>
</svg>
