<svg width="42" height="20" viewBox="0 0 42 20" fill="none" xmlns="http://www.w3.org/2000/svg">
<path d="M0 10C0 4.47715 4.47715 0 10 0H32C37.5228 0 42 4.47715 42 10V10C42 15.5228 37.5228 20 32 20H10C4.47715 20 0 15.5228 0 10V10Z" fill="#B7B9D0"/>
<path d="M11.16 14.07C10.6467 14.07 10.1867 13.9867 9.78 13.82C9.37333 13.6533 9.04667 13.4067 8.8 13.08C8.56 12.7533 8.43333 12.36 8.42 11.9H10.24C10.2667 12.16 10.3567 12.36 10.51 12.5C10.6633 12.6333 10.8633 12.7 11.11 12.7C11.3633 12.7 11.5633 12.6433 11.71 12.53C11.8567 12.41 11.93 12.2467 11.93 12.04C11.93 11.8667 11.87 11.7233 11.75 11.61C11.6367 11.4967 11.4933 11.4033 11.32 11.33C11.1533 11.2567 10.9133 11.1733 10.6 11.08C10.1467 10.94 9.77667 10.8 9.49 10.66C9.20333 10.52 8.95667 10.3133 8.75 10.04C8.54333 9.76667 8.44 9.41 8.44 8.97C8.44 8.31667 8.67667 7.80667 9.15 7.44C9.62333 7.06667 10.24 6.88 11 6.88C11.7733 6.88 12.3967 7.06667 12.87 7.44C13.3433 7.80667 13.5967 8.32 13.63 8.98H11.78C11.7667 8.75333 11.6833 8.57667 11.53 8.45C11.3767 8.31667 11.18 8.25 10.94 8.25C10.7333 8.25 10.5667 8.30667 10.44 8.42C10.3133 8.52667 10.25 8.68333 10.25 8.89C10.25 9.11667 10.3567 9.29333 10.57 9.42C10.7833 9.54667 11.1167 9.68333 11.57 9.83C12.0233 9.98333 12.39 10.13 12.67 10.27C12.9567 10.41 13.2033 10.6133 13.41 10.88C13.6167 11.1467 13.72 11.49 13.72 11.91C13.72 12.31 13.6167 12.6733 13.41 13C13.21 13.3267 12.9167 13.5867 12.53 13.78C12.1433 13.9733 11.6867 14.07 11.16 14.07ZM17.8823 12.55V14H17.0123C16.3923 14 15.909 13.85 15.5623 13.55C15.2157 13.2433 15.0423 12.7467 15.0423 12.06V9.84H14.3623V8.42H15.0423V7.06H16.7523V8.42H17.8723V9.84H16.7523V12.08C16.7523 12.2467 16.7923 12.3667 16.8723 12.44C16.9523 12.5133 17.0857 12.55 17.2723 12.55H17.8823ZM24.0948 11.12C24.0948 11.28 24.0848 11.4467 24.0648 11.62H20.1948C20.2215 11.9667 20.3315 12.2333 20.5248 12.42C20.7248 12.6 20.9682 12.69 21.2548 12.69C21.6815 12.69 21.9782 12.51 22.1448 12.15H23.9648C23.8715 12.5167 23.7015 12.8467 23.4548 13.14C23.2148 13.4333 22.9115 13.6633 22.5448 13.83C22.1782 13.9967 21.7682 14.08 21.3148 14.08C20.7682 14.08 20.2815 13.9633 19.8548 13.73C19.4282 13.4967 19.0948 13.1633 18.8548 12.73C18.6148 12.2967 18.4948 11.79 18.4948 11.21C18.4948 10.63 18.6115 10.1233 18.8448 9.69C19.0848 9.25667 19.4182 8.92333 19.8448 8.69C20.2715 8.45667 20.7615 8.34 21.3148 8.34C21.8548 8.34 22.3348 8.45333 22.7548 8.68C23.1748 8.90667 23.5015 9.23 23.7348 9.65C23.9748 10.07 24.0948 10.56 24.0948 11.12ZM22.3448 10.67C22.3448 10.3767 22.2448 10.1433 22.0448 9.97C21.8448 9.79667 21.5948 9.71 21.2948 9.71C21.0082 9.71 20.7648 9.79333 20.5648 9.96C20.3715 10.1267 20.2515 10.3633 20.2048 10.67H22.3448ZM30.257 11.12C30.257 11.28 30.247 11.4467 30.227 11.62H26.357C26.3836 11.9667 26.4936 12.2333 26.687 12.42C26.887 12.6 27.1303 12.69 27.417 12.69C27.8436 12.69 28.1403 12.51 28.307 12.15H30.127C30.0336 12.5167 29.8636 12.8467 29.617 13.14C29.377 13.4333 29.0736 13.6633 28.707 13.83C28.3403 13.9967 27.9303 14.08 27.477 14.08C26.9303 14.08 26.4436 13.9633 26.017 13.73C25.5903 13.4967 25.257 13.1633 25.017 12.73C24.777 12.2967 24.657 11.79 24.657 11.21C24.657 10.63 24.7736 10.1233 25.007 9.69C25.247 9.25667 25.5803 8.92333 26.007 8.69C26.4336 8.45667 26.9236 8.34 27.477 8.34C28.017 8.34 28.497 8.45333 28.917 8.68C29.337 8.90667 29.6636 9.23 29.897 9.65C30.137 10.07 30.257 10.56 30.257 11.12ZM28.507 10.67C28.507 10.3767 28.407 10.1433 28.207 9.97C28.007 9.79667 27.757 9.71 27.457 9.71C27.1703 9.71 26.927 9.79333 26.727 9.96C26.5336 10.1267 26.4136 10.3633 26.367 10.67H28.507ZM32.8691 6.6V14H31.1591V6.6H32.8691Z" fill="white"/>
</svg>
