<svg width="54" height="20" viewBox="0 0 54 20" fill="none" xmlns="http://www.w3.org/2000/svg">
<path d="M0 10C0 4.47715 4.47715 0 10 0H44C49.5228 0 54 4.47715 54 10V10C54 15.5228 49.5228 20 44 20H10C4.47715 20 0 15.5228 0 10V10Z" fill="#F9CF30"/>
<path d="M10.33 8.35V9.77H12.62V11.09H10.33V12.63H12.92V14H8.62V6.98H12.92V8.35H10.33ZM15.7402 6.6V14H14.0302V6.6H15.7402ZM22.2394 11.12C22.2394 11.28 22.2294 11.4467 22.2094 11.62H18.3394C18.366 11.9667 18.476 12.2333 18.6694 12.42C18.8694 12.6 19.1127 12.69 19.3994 12.69C19.826 12.69 20.1227 12.51 20.2894 12.15H22.1094C22.016 12.5167 21.846 12.8467 21.5994 13.14C21.3594 13.4333 21.056 13.6633 20.6894 13.83C20.3227 13.9967 19.9127 14.08 19.4594 14.08C18.9127 14.08 18.426 13.9633 17.9994 13.73C17.5727 13.4967 17.2394 13.1633 16.9994 12.73C16.7594 12.2967 16.6394 11.79 16.6394 11.21C16.6394 10.63 16.756 10.1233 16.9894 9.69C17.2294 9.25667 17.5627 8.92333 17.9894 8.69C18.416 8.45667 18.906 8.34 19.4594 8.34C19.9994 8.34 20.4794 8.45333 20.8994 8.68C21.3194 8.90667 21.646 9.23 21.8794 9.65C22.1194 10.07 22.2394 10.56 22.2394 11.12ZM20.4894 10.67C20.4894 10.3767 20.3894 10.1433 20.1894 9.97C19.9894 9.79667 19.7394 9.71 19.4394 9.71C19.1527 9.71 18.9094 9.79333 18.7094 9.96C18.516 10.1267 18.396 10.3633 18.3494 10.67H20.4894ZM22.8015 11.21C22.8015 10.63 22.9182 10.1233 23.1515 9.69C23.3915 9.25667 23.7215 8.92333 24.1415 8.69C24.5682 8.45667 25.0548 8.34 25.6015 8.34C26.3015 8.34 26.8848 8.52333 27.3515 8.89C27.8248 9.25667 28.1348 9.77333 28.2815 10.44H26.4615C26.3082 10.0133 26.0115 9.8 25.5715 9.8C25.2582 9.8 25.0082 9.92333 24.8215 10.17C24.6348 10.41 24.5415 10.7567 24.5415 11.21C24.5415 11.6633 24.6348 12.0133 24.8215 12.26C25.0082 12.5 25.2582 12.62 25.5715 12.62C26.0115 12.62 26.3082 12.4067 26.4615 11.98H28.2815C28.1348 12.6333 27.8248 13.1467 27.3515 13.52C26.8782 13.8933 26.2948 14.08 25.6015 14.08C25.0548 14.08 24.5682 13.9633 24.1415 13.73C23.7215 13.4967 23.3915 13.1633 23.1515 12.73C22.9182 12.2967 22.8015 11.79 22.8015 11.21ZM32.3062 12.55V14H31.4362C30.8162 14 30.3328 13.85 29.9862 13.55C29.6395 13.2433 29.4662 12.7467 29.4662 12.06V9.84H28.7862V8.42H29.4662V7.06H31.1762V8.42H32.2962V9.84H31.1762V12.08C31.1762 12.2467 31.2162 12.3667 31.2962 12.44C31.3762 12.5133 31.5095 12.55 31.6962 12.55H32.3062ZM34.9687 9.35C35.1687 9.04333 35.4187 8.80333 35.7187 8.63C36.0187 8.45 36.352 8.36 36.7187 8.36V10.17H36.2487C35.822 10.17 35.502 10.2633 35.2887 10.45C35.0753 10.63 34.9687 10.95 34.9687 11.41V14H33.2587V8.42H34.9687V9.35ZM38.396 7.84C38.096 7.84 37.8493 7.75333 37.656 7.58C37.4693 7.4 37.376 7.18 37.376 6.92C37.376 6.65333 37.4693 6.43333 37.656 6.26C37.8493 6.08 38.096 5.99 38.396 5.99C38.6893 5.99 38.9293 6.08 39.116 6.26C39.3093 6.43333 39.406 6.65333 39.406 6.92C39.406 7.18 39.3093 7.4 39.116 7.58C38.9293 7.75333 38.6893 7.84 38.396 7.84ZM39.246 8.42V14H37.536V8.42H39.246ZM40.1452 11.21C40.1452 10.63 40.2619 10.1233 40.4952 9.69C40.7352 9.25667 41.0652 8.92333 41.4852 8.69C41.9119 8.45667 42.3986 8.34 42.9452 8.34C43.6452 8.34 44.2286 8.52333 44.6952 8.89C45.1686 9.25667 45.4786 9.77333 45.6252 10.44H43.8052C43.6519 10.0133 43.3552 9.8 42.9152 9.8C42.6019 9.8 42.3519 9.92333 42.1652 10.17C41.9786 10.41 41.8852 10.7567 41.8852 11.21C41.8852 11.6633 41.9786 12.0133 42.1652 12.26C42.3519 12.5 42.6019 12.62 42.9152 12.62C43.3552 12.62 43.6519 12.4067 43.8052 11.98H45.6252C45.4786 12.6333 45.1686 13.1467 44.6952 13.52C44.2219 13.8933 43.6386 14.08 42.9452 14.08C42.3986 14.08 41.9119 13.9633 41.4852 13.73C41.0652 13.4967 40.7352 13.1633 40.4952 12.73C40.2619 12.2967 40.1452 11.79 40.1452 11.21Z" fill="white"/>
</svg>
