<svg width="48" height="20" viewBox="0 0 48 20" fill="none" xmlns="http://www.w3.org/2000/svg">
<path d="M0 10C0 4.47715 4.47715 0 10 0H38C43.5229 0 48 4.47715 48 10C48 15.5228 43.5228 20 38 20H10C4.47715 20 0 15.5228 0 10Z" fill="#A891EC"/>
<path d="M13.19 6.98V8.35H10.33V9.83H12.47V11.16H10.33V14H8.62V6.98H13.19ZM15.7988 6.6V14H14.0888V6.6H15.7988ZM22.738 8.42L19.238 16.65H17.398L18.678 13.81L16.408 8.42H18.318L19.608 11.91L20.888 8.42H22.738ZM24.2163 7.84C23.9163 7.84 23.6697 7.75333 23.4763 7.58C23.2897 7.4 23.1963 7.18 23.1963 6.92C23.1963 6.65333 23.2897 6.43333 23.4763 6.26C23.6697 6.08 23.9163 5.99 24.2163 5.99C24.5097 5.99 24.7497 6.08 24.9363 6.26C25.1297 6.43333 25.2263 6.65333 25.2263 6.92C25.2263 7.18 25.1297 7.4 24.9363 7.58C24.7497 7.75333 24.5097 7.84 24.2163 7.84ZM25.0663 8.42V14H23.3563V8.42H25.0663ZM29.7055 8.36C30.3589 8.36 30.8789 8.57333 31.2655 9C31.6589 9.42 31.8555 10 31.8555 10.74V14H30.1555V10.97C30.1555 10.5967 30.0589 10.3067 29.8655 10.1C29.6722 9.89333 29.4122 9.79 29.0855 9.79C28.7589 9.79 28.4989 9.89333 28.3055 10.1C28.1122 10.3067 28.0155 10.5967 28.0155 10.97V14H26.3055V8.42H28.0155V9.16C28.1889 8.91333 28.4222 8.72 28.7155 8.58C29.0089 8.43333 29.3389 8.36 29.7055 8.36ZM35.1638 8.34C35.5572 8.34 35.9005 8.42 36.1938 8.58C36.4938 8.74 36.7238 8.95 36.8838 9.21V8.42H38.5938V13.99C38.5938 14.5033 38.4905 14.9667 38.2838 15.38C38.0838 15.8 37.7738 16.1333 37.3538 16.38C36.9405 16.6267 36.4238 16.75 35.8038 16.75C34.9772 16.75 34.3072 16.5533 33.7938 16.16C33.2805 15.7733 32.9872 15.2467 32.9138 14.58H34.6038C34.6572 14.7933 34.7838 14.96 34.9838 15.08C35.1838 15.2067 35.4305 15.27 35.7238 15.27C36.0772 15.27 36.3572 15.1667 36.5638 14.96C36.7772 14.76 36.8838 14.4367 36.8838 13.99V13.2C36.7172 13.46 36.4872 13.6733 36.1938 13.84C35.9005 14 35.5572 14.08 35.1638 14.08C34.7038 14.08 34.2872 13.9633 33.9138 13.73C33.5405 13.49 33.2438 13.1533 33.0238 12.72C32.8105 12.28 32.7038 11.7733 32.7038 11.2C32.7038 10.6267 32.8105 10.1233 33.0238 9.69C33.2438 9.25667 33.5405 8.92333 33.9138 8.69C34.2872 8.45667 34.7038 8.34 35.1638 8.34ZM36.8838 11.21C36.8838 10.7833 36.7638 10.4467 36.5238 10.2C36.2905 9.95333 36.0038 9.83 35.6638 9.83C35.3238 9.83 35.0338 9.95333 34.7938 10.2C34.5605 10.44 34.4438 10.7733 34.4438 11.2C34.4438 11.6267 34.5605 11.9667 34.7938 12.22C35.0338 12.4667 35.3238 12.59 35.6638 12.59C36.0038 12.59 36.2905 12.4667 36.5238 12.22C36.7638 11.9733 36.8838 11.6367 36.8838 11.21Z" fill="white"/>
</svg>
