<svg width="47" height="20" viewBox="0 0 47 20" fill="none" xmlns="http://www.w3.org/2000/svg">
<path d="M0 10C0 4.47715 4.47715 0 10 0H37C42.5229 0 47 4.47715 47 10C47 15.5228 42.5228 20 37 20H10C4.47715 20 0 15.5228 0 10Z" fill="#70559B"/>
<path d="M13.28 9.2C13.1533 8.96667 12.97 8.79 12.73 8.67C12.4967 8.54333 12.22 8.48 11.9 8.48C11.3467 8.48 10.9033 8.66333 10.57 9.03C10.2367 9.39 10.07 9.87333 10.07 10.48C10.07 11.1267 10.2433 11.6333 10.59 12C10.9433 12.36 11.4267 12.54 12.04 12.54C12.46 12.54 12.8133 12.4333 13.1 12.22C13.3933 12.0067 13.6067 11.7 13.74 11.3H11.57V10.04H15.29V11.63C15.1633 12.0567 14.9467 12.4533 14.64 12.82C14.34 13.1867 13.9567 13.4833 13.49 13.71C13.0233 13.9367 12.4967 14.05 11.91 14.05C11.2167 14.05 10.5967 13.9 10.05 13.6C9.51 13.2933 9.08667 12.87 8.78 12.33C8.48 11.79 8.33 11.1733 8.33 10.48C8.33 9.78667 8.48 9.17 8.78 8.63C9.08667 8.08333 9.51 7.66 10.05 7.36C10.59 7.05333 11.2067 6.9 11.9 6.9C12.74 6.9 13.4467 7.10333 14.02 7.51C14.6 7.91667 14.9833 8.48 15.17 9.2H13.28ZM19.6672 8.36C20.3072 8.36 20.8205 8.57333 21.2072 9C21.5939 9.42 21.7872 10 21.7872 10.74V14H20.0872V10.97C20.0872 10.5967 19.9905 10.3067 19.7972 10.1C19.6039 9.89333 19.3439 9.79 19.0172 9.79C18.6905 9.79 18.4305 9.89333 18.2372 10.1C18.0439 10.3067 17.9472 10.5967 17.9472 10.97V14H16.2372V6.6H17.9472V9.17C18.1205 8.92333 18.3572 8.72667 18.6572 8.58C18.9572 8.43333 19.2939 8.36 19.6672 8.36ZM25.5155 14.08C24.9688 14.08 24.4755 13.9633 24.0355 13.73C23.6021 13.4967 23.2588 13.1633 23.0055 12.73C22.7588 12.2967 22.6355 11.79 22.6355 11.21C22.6355 10.6367 22.7621 10.1333 23.0155 9.7C23.2688 9.26 23.6155 8.92333 24.0555 8.69C24.4955 8.45667 24.9888 8.34 25.5355 8.34C26.0821 8.34 26.5755 8.45667 27.0155 8.69C27.4555 8.92333 27.8021 9.26 28.0555 9.7C28.3088 10.1333 28.4355 10.6367 28.4355 11.21C28.4355 11.7833 28.3055 12.29 28.0455 12.73C27.7921 13.1633 27.4421 13.4967 26.9955 13.73C26.5555 13.9633 26.0621 14.08 25.5155 14.08ZM25.5155 12.6C25.8421 12.6 26.1188 12.48 26.3455 12.24C26.5788 12 26.6955 11.6567 26.6955 11.21C26.6955 10.7633 26.5821 10.42 26.3555 10.18C26.1355 9.94 25.8621 9.82 25.5355 9.82C25.2021 9.82 24.9255 9.94 24.7055 10.18C24.4855 10.4133 24.3755 10.7567 24.3755 11.21C24.3755 11.6567 24.4821 12 24.6955 12.24C24.9155 12.48 25.1888 12.6 25.5155 12.6ZM31.6127 14.08C31.126 14.08 30.6927 13.9967 30.3127 13.83C29.9327 13.6633 29.6327 13.4367 29.4127 13.15C29.1927 12.8567 29.0693 12.53 29.0427 12.17H30.7327C30.7527 12.3633 30.8427 12.52 31.0027 12.64C31.1627 12.76 31.3593 12.82 31.5927 12.82C31.806 12.82 31.9693 12.78 32.0827 12.7C32.2027 12.6133 32.2627 12.5033 32.2627 12.37C32.2627 12.21 32.1793 12.0933 32.0127 12.02C31.846 11.94 31.576 11.8533 31.2027 11.76C30.8027 11.6667 30.4693 11.57 30.2027 11.47C29.936 11.3633 29.706 11.2 29.5127 10.98C29.3193 10.7533 29.2227 10.45 29.2227 10.07C29.2227 9.75 29.3093 9.46 29.4827 9.2C29.6627 8.93333 29.9227 8.72333 30.2627 8.57C30.6093 8.41667 31.0193 8.34 31.4927 8.34C32.1927 8.34 32.7427 8.51333 33.1427 8.86C33.5493 9.20667 33.7827 9.66667 33.8427 10.24H32.2627C32.236 10.0467 32.1493 9.89333 32.0027 9.78C31.8627 9.66667 31.676 9.61 31.4427 9.61C31.2427 9.61 31.0893 9.65 30.9827 9.73C30.876 9.80333 30.8227 9.90667 30.8227 10.04C30.8227 10.2 30.906 10.32 31.0727 10.4C31.246 10.48 31.5127 10.56 31.8727 10.64C32.286 10.7467 32.6227 10.8533 32.8827 10.96C33.1427 11.06 33.3693 11.2267 33.5627 11.46C33.7627 11.6867 33.866 11.9933 33.8727 12.38C33.8727 12.7067 33.7793 13 33.5927 13.26C33.4127 13.5133 33.1493 13.7133 32.8027 13.86C32.4627 14.0067 32.066 14.08 31.6127 14.08ZM38.0288 12.55V14H37.1588C36.5388 14 36.0555 13.85 35.7088 13.55C35.3622 13.2433 35.1888 12.7467 35.1888 12.06V9.84H34.5088V8.42H35.1888V7.06H36.8988V8.42H38.0188V9.84H36.8988V12.08C36.8988 12.2467 36.9388 12.3667 37.0188 12.44C37.0988 12.5133 37.2322 12.55 37.4188 12.55H38.0288Z" fill="white"/>
</svg>
